<?xml version="1.0" encoding="UTF-8"?>
<svg id="Layer_2" data-name="Layer 2" xmlns="http://www.w3.org/2000/svg" viewBox="0 0 367.23 243">
  <g id="Layer_1-2" data-name="Layer 1">
    <g>
      <path d="M100.83,19.06c.18.17.14,4.55,1.1,4.81,2.46.67,10.24-.21,13.58-.07,5.74.25,11.91,1.14,17.66,1.42,42.66,2.08,84.77,3.17,127.43.65,1.76-.1,6.11-.36,7.47-.62.78-.15-.1-1.71.81-2.12,3.16-1.42,8.9.12,11.45-.61.85-.24.13-1.83.37-2.09.42-.45,10.09,2.38,12,2.64,11.2,1.51,26.13-3.44,34.42,4.41,1.55,1.47,2.84,2.68,4.4,4.08,6.45,5.78,5.99,2.9,13.5,3.91,4.58.62,5.84,5.4,8.81,7.92.44.37,1.66-.13,1.86.57.44,1.6-.3,5.33-.05,7.44.21,1.8,1,7.34,1.35,8.71.19.77,1.75.71,1.87,1.43.09.48-.72,4.2-1.01,4.99-.23.62-3.38,5.39-3.65,5.58-.52.36-1.74-.86-2.52-.53-.12.05-.15,1-.6,1.25-1.9,1.04-8.39,3.46-8.2,5.81.06.72,2.83,2.53,3.4,3.9.61,1.47.33,4.14.63,4.49.7.83,4.35.97,5.13,1.32,2.79,1.27,14.03,10.96,14.5,13.43.38,2,.17,16.37-.8,17.21-.53.46-6.01.78-8.09,1.79-1.33.65-6.57,4.17-7.77,5.17-6.01,5,1.03,4.75,2.22,6.95.4.74-.13,2.07.25,2.49.28.31,1.47-.28,1.96.53,3.3,5.44.96,11.35.75,16.95-.01.31,1.03.14,1.27.8s-.19,1.98.03,2.2c.12.13,2.28-.13,3.38.37.56.25,6.52,6.37,6.68,6.94.39,1.31.42,9.92.13,11.42-.41,2.13-3.46,3.08-3.42,6.83.04,3.4,4.59,6.71,2.41,11.22-.69,1.43-7.24,3.77-9.22,5.76-2.58,2.57-2.99,6.73-5.76,9.9-7.27,8.32-12.94,5.86-22.3,7.67-14.14,2.73-28.6,4.43-43.12,5.25-12.97.73-36.99,2.36-48.99-.05-4.88-.98-8.27-4.22-12.85-5.41-.63-.16-.24-1.28-1.48-1.41-4.25-.43-9.56,2.33-13.77,2.54s-10.89-2.61-12.79-2.48c-1.43.1-6.34,2.94-8.18,3.45-6.67,1.86-17.37-1.61-24.58-2.08-28.95-1.89-55.04,3.54-83.08,4.11-9.54.19-19.92-4.48-29.41-5.39-2.47-.24-11.81.5-12.56.23-1.54-.58-5.98-6.61-7.43-8.19-.58-.64-1.94-.9-2.03-1.03-.56-.79,1.55-2.77,1.32-3.67s-2.1-.78-2.55-1.21c-2.3-2.24-.95-9.03-1.56-11.61-.13-.55-1.24-.18-1.4-1.44-.29-2.19.57-5.36-.07-7.41-.43-1.4-2.98-1.64-3.63-5.56-1.21-7.27-.76-11.34-.98-18.37-.07-2.37-2.64-7.17-2.49-8.87.18-2.09,7.08-7.09,6.48-9.4-.64-2.47-6.88-3.41-8.35-4.5-.54-.4-.78-2.08-1.76-3.16-2.7-2.98-5.65-2.73-7.68-7.31C-.89,109.02.27,101.25,1.36,86.1c.53-7.33,2.22-7,3.25-12.42.2-1.05-.72-2.78.09-3.85s2.8.03,3.41-.47c.15-.13.51-2.37,1.42-3.68,4.15-5.95,8.97-4.93,14.51-6.6,1.22-.37,1.74-1.92,2.49-2.21.95-.37,7.38-.16,9.17-.44,1.31-.21,5.98-1.32,6.79-1.93.14-.11,1.8-2.91,1.85-3.08,1.53-5.48-.73-8.31,3.37-13.62,3.24-4.2,6.17-4.52,11.23-5.11,1.62-.19,4.08.38,5.37-.09s.8-1.99,1.26-2.47c.42-.43,2.14-.37,3.21-1.22,1.15-.9,2.13-3.43,3.76-4.41,2.93-1.77,7.31-.79,9.46-2.13,1.31-.82.81-2.21,1.59-2.64.68-.38,6.93-1.38,8.04-1.39,2.56-.02,3.9,1.12,5.61,1.28,1.01.09,3.31-.82,3.59-.55ZM168.25,53.79c-.09-.07-1.06.57-1.64.51-5.32-.51-8.22-1.26-12.67,2.51-4.7,3.98-4.75,9.08-.65,13.64,3.45,3.82,13.49,5.44,13.99,12.55.07.95-.93,1.55-1.04,2.48-.13,1.02.45,1.95.38,2.71-.06.67-.92,1-1.06,1.33-.3.68,1.71-.17,1.35,1.01-5.45,4.87-9.66,1.73-15.66.7,1.43,2.5-2.06,3.54,1,5.45,2.07,1.3,3.49.64,5.19,1.08s2.9,2,4.93,1.65c.51-.09.48-1.51,1.77-1.81,1.58-.36,3.73.86,5.09-.19.92-.71,1.1-6.62,5.18-5.52l-2.04-.68c2.62-2.61.43-3.05.05-5.17s-.32-4.3-.74-6.39l-1.35,1.35c-.6-6.5-6.71-11-11.26-14.98-1.05,3.69-2.34-1.89-1.28-3.4,3.28-4.68,10.99-1.2,12.43-2.13,1.97-1.26-.54-3.45-1.18-4.43-.45-.68-.7-2.19-.79-2.26ZM273.9,102.1c1.18-.57,2.2-1.77,3-2.78,4.66-5.89,19.24-33.22,18.85-39.78-.25-4.2-2.99-4.77-6.24-2.59l-5.74,18.61c-3.15.65-8.96-17.68-12.83-16.89-2.76.56-1.65,4.54-1.15,6.38,1.35,5.01,7.77,15.05,8.1,18.53.16,1.68-1.87,2.94-1.25,4.92,1.28-.23,1.56-5.18,2.81-1.74,1,2.78-4.61,13.95-5.55,6.51-2.25-.15-5.54,8.25-5.3,8.73.07.14,1.05.03,1.18.55s-.96,2.95.7,2.96c-.16-1.42,1.49-1.5,1.9-2.51.18-.43,1.14-7.48,2.88-5.65.17.18-1.88,3.61-1.36,4.76ZM205.08,59.91c-.15-.2-3.98-1.17-4.77-1.36-.96.91,4.32,4.1,0,5.16-.88.22-1.96-.51-2.04-.39-.3.38,2.41,7.82,1.36,9.53l2.71-1.36c-.55,4.74.04,13.38-2.67,17.24-.48.68-7.93,5.46-9.4,5.81-3.34-2.51-6.54-4.42-7.03-9.09s2.34-9.31,3.27-13.79c.26-1.23,1.54-10.07,1.41-10.59-.7-2.98-4.15-1.29-5.37.52-3.2,4.76-3.94,15.35-4.09,21.1-.08,3.12-.02,6.18.72,9.22l1.35-1.35c2.31,7.38,7,12.17,14.99,8.84l-1.37-1c1.81-4.06,2.82-.31,3.06-.35,3.2-.5,2.19-4.56,2.4-4.77.25-.25,3.65.6,3.9-1,.08-.48-.71-1.49-.41-2.59.23-.86,2.86-6.22,3.35-7.06l-.02-15.91c2.11,1.02,2.56-.48,4.04-1.06,3.28-1.29,1.65,1.3,2.11,1.72,1.52,1.4,6.4-3.99,6.83-.34s-2.25,20.7-.72,22.15l2.03-.68c.52.69.34,11.96,3.41,12.93l1.43-37.34c3.71-2.81,3.3-.12,3.75-.05.87.13,2.23-.74,3.37-.77,1.68-.05,3.66,1.58,4.4-.63-3.15-.23-1.5-4.41-5.03-3.43-.78.21.02,1.67-1.1,1.37-.1-.63.36-1.96-.37-2.07-3.02-.45-6.92,1.86-9.48,2.09-5.12.48-6.58-2.08-12.36-.08-1.17.4-3.09,2.94-4.38,1.42-.25-.3.79-1.9.69-2.03ZM245.58,62.33c-.92-1.32-3.22-4.08-4.77-1.78-.24.36-1.6,7.57-1.67,8.55-.29,4.12,1.07,8.21.01,12.78-.18.78-1.62.79-2.05,1.51l2.04.67c-.72,1.55-3.81.78-4.08,1.03-.14.13.54,1.05.55,1.7,0,.6-.65,1.61-.55,1.7.17.15,2.84.06,3.4,2.39l-2.71,1.69c.65.13,2.53-.19,2.73,0,.45.43.46,10.68.73,12.54.21,1.47,2.24,7.18,2.68,3.47.64-5.44.59-11.13.77-16.6l13.53-2.13c-.77,3.71,1.48,5.18-2.72,6.47,4.24,1.84,3.61-3.82,4.09-6.47l2.71,2.72c.37-.77-.81-2.63-.67-2.72.29-.19,1.57.23,2.23-.02s.53-1.05.98-1.36c.7-.48,2.09-.34,2.28-1.11,1.15-4.51-4.21-4.21-4.8-5.06-.22-.32.61-1.53.48-2.23-.64-3.43-.42-2.87-.46-6.2-.03-2.84-.03-5.7-.04-8.53l-2.03.68c-.73-.73.8-6.5-1.57-3.23-3.35,4.6-.19,16.74-2.14,19.61-1.22,1.8-7.89,1.08-9.93.63,1.08-3.68.41-7.44.76-11.16.26-2.83,2-5.57,1.27-8.78-.12-.53-.88-.53-1.04-.77ZM66.69,60.67c-5.04-3.13-2.65,8.9-2.61,11.17.1,4.91-2.56,6.55,4.04,9.16.57-2.4,2.32-5.23,2.05-7.77-.19-1.73-1.7-2.6-1.91-3.61-.29-1.41.97-2.96.41-5.12-.05-.21-1.8-3.71-1.98-3.82ZM85.17,101.42c5.12-1.84,3.97-8.7,4.93-13.1.41-1.9,2.24-4.51,2.44-6.47.16-1.59-.65-2.72-.56-3.88.19-2.41,3.95-4.53,2.41-9.24-2.08-6.38-5.1,2.09-5.7,4.64-.65,2.72-1.36,5.3-2.01,8.14-.36,1.6.01,3.35-.45,5.01-.6,2.18-7.86,6.49-4.44,11.12,1.54,2.09,4.26-.48,3.36,3.78ZM54.79,96.98c5.58-4.96-2.68-7.42-2.82-9.51-.06-.86,1.68-3.51,1.14-6.78-.38-2.29-2.34-3.24-2.52-4.2-.21-1.09,2.27-9.04-1.86-7.74-.91.28-.96,1.55-1.06,2.34-.59,4.88.81,12.72,1.39,17.74.24,2.06-.81,7.96,1.54,8.72.17.06,3.41.35,3.59.32.44-.08.33-.64.62-.9ZM30.09,96.53c-.53-.91,1.8-8.1-2.65-9.31-7.93-2.15.21,11.15,1.87,13.16l5.43,2.39c1.12-3.24-4.2-5.46-4.65-6.25ZM76.99,102.79c-2.68-.94-4.67.98-6.53,1.3-2.56.44-10.11.31-11.18,2.45-.69,1.38,1.37.73,2.09,1.45,2.62,2.61,2.81,4.67,7.47,6.68,1.42.61,3.33.04,4.48.97,1.93,1.57-.92,3.73,4.35,2.12,0,.95.18,2-.14,2.92-1.18,3.45-3.24,5.26-5.2,7.74-2.35,2.98-3.98,9.69-7.43,10.95-.49.18-4.21.81-4.65.78-1.02-.07-2.3-1.73-3-1.29-.26.16-.25,2.6-2.06,2.03-.18-2.48.45-5.37,1.4-7.66.22-.53,1.15-.53,1.19-.62.56-1.25-2.48-3.72-3.09-5.18-.77-1.85-.55-5.33-1.02-6.14-.24-.41-1.85-.64-1.88-1.16-.02-.41,5.34-3.99,5.27-6.15-.01-.32-1.44-1.42-1.89-2.7-.65-1.84,2.45.47,1.37-1.36-1.32-2.23-10.93,1.99-12.53,3.12-1.49,1.05-1.55,3.48-.06,4.02.23.08,2.33-4.46,3.74-1.01.67,1.65-2.64.69-3.13,3.02-.38,1.8.26,7.64.76,9.56,1,3.82,1.11,3.64,1,7.82-.2,8.2,3.31,10.99,4.05,17.76.36,3.25-1.82,12.38-.3,14.59,1.09,1.59,2.82.79,2.87-1.15.04-1.44-.95-2.63-1.1-4.03-.2-1.92-1.27-12.1-.09-12.92.89-.62,4.51-.59,5.21.36.35.48-1.39,7.5.64,8.19,2.2.75.8-5.89,1.03-7.13.77-4.13,6.47-1.93,9.18-1.85,1.67.05,5.59-1.8,6.38.57.75,2.24.27,18.76.12,22.39-.07,1.6-1.21,2.68-1.21,3.93.02,2.2,1.82,6.34,1.88,9.02.07,3.18-3.09,13.6,2.03,12.21l-1.04-48.03c.17-.54.13-1.16.83-1.33,2.09-.5,7.85-.26,9.31-1.29.42-1.66,6.5-8.75,5.89-9.57-.14-.19-2.55-1.05-3.72-2.77-2.03-3.02-1.69-6.32-2.77-8.8-.84-1.92-5.36-4.31-6.5-7.11-2.05-5.04,2.02-3.6,1.98-6.83-.01-.98-1.82-8.29-3.3-6.49.97,7.57-6.63,2.7-3.37-1.66,1.03-1.38,2.59-.46,2.68-1.74ZM120.59,121.85c-3.38-.37-4.74-2.23-8.12-.28-2.47,1.42-2.66,3.85-4.13,5.4-1.86,1.97-5.43,1.82-6.15,5.08,6.53-2.07,16.31-2.44,18.4-10.2ZM131.46,136.83c-.09-.07-1.06.57-1.64.51-5.32-.51-8.22-1.26-12.67,2.51-4.7,3.98-4.75,9.08-.65,13.64,3.45,3.82,13.49,5.44,13.99,12.55.07.95-.93,1.55-1.04,2.48-.13,1.02.45,1.95.38,2.71-.06.67-.92,1-1.06,1.33-.3.68,1.71-.17,1.35,1.01-5.45,4.87-9.66,1.73-15.66.7,1.43,2.5-2.06,3.54,1,5.45,2.07,1.3,3.49.64,5.19,1.08s2.9,2,4.93,1.65c.51-.09.48-1.51,1.77-1.81,1.58-.36,3.73.86,5.09-.19.92-.71,1.1-6.62,5.18-5.52l-2.04-.68c2.62-2.61.43-3.05.05-5.17s-.32-4.3-.74-6.39l-1.35,1.35c-.6-6.5-6.71-11-11.26-14.98-1.05,3.69-2.34-1.89-1.28-3.4,3.28-4.68,10.99-1.2,12.43-2.13,1.97-1.26-.54-3.45-1.18-4.43-.45-.68-.7-2.19-.79-2.26ZM187.48,140.8c-.28-.17-.27-1.51-1.22-1.85-2.98-1.06-11.55,2.47-13.56,4.65-2.54,2.75.06,2.64.16,2.87.14.3-.69,1.08-.5,1.22.41.3,3.65-1.22,4.77-.68.86,3.83-1,27.85.83,29.13.14.1,2.79.68,3.09.68,2.37-.02.5-4.46.47-6.48-.04-2.19-.22-9.41.73-10.43,1.01-1.08,4.86.17,5.46,1.38.96,7.95,0,16.22,1.01,24.19.13,1,.53,2.1,1.36,1,0-6.93-1.47-14.56-.71-21.47.08-.69.32-2.35,1.06-2.34.85.01,8.54,11.51,11.6,12.23.84.19,2.2.24,1.68-1-3.29-2.08-4.06-5.75-5.84-8.47-.72-1.11-3.54-4-4.24-5.26-3.57-6.43,3.98-4.62,6.03-7.34,3.38-4.49-2.84-10.45-6.51-12.63-.64,2.63-1.04.34-2.8.17-.9-.09-2.15.84-2.87.41ZM320.22,140.23c-2.73-1.32-3.65.8-5.28,1.2-4.47,1.1-7.51-2.74-10.52,4.44-3.76,8.96,1.2,11.41,8.82,13.24,3.02.72,1.69.06,4.83,1.46,2.31,1.03,5.74,1.78,7.59,3.16.29.22,3.44,3.25,3.48,3.49.27,1.81-.74,4.71-2.77,2.96,1.06,6.9-7.63,6.21-11.78,3.43-.83-.55-5.32-7.74-6.6-6.83.4,1.74-2.51,3.34-2.61,3.55-.08.18-.22,3.77-.12,3.94.06.1.99-.48,1.38-.29.91.43,1.01,1.8,1.54,2.13,5.64,3.49,10.05,3.54,16.52,3.29,1.16-.05,2.11-1.46,3.92-.96,2.2.61,1.26,3.94,2.86,3.31,2.46-1.76-1.05-2.5-1.01-4.75,4.02.59,2.08-.78,3.08-2.7s3.5-2.5,2.37-6.16c-1.72,1.68-2.9-.77-3.26-2.59-.26-1.32.84-3.96.55-4.22-.14-.12-1.56.17-2.25-.14s-2.05-2.22-3.66-3.13c-2.88-1.63-13.78-4.75-14.52-6.62-.48-1.21.75-1.07,1.32-1.36,5.24-2.68,10.2.69,15.65.29.42-2.06,1.27-4.02-.11-5.91-1.75.06-4.28-2.57-5.03-2.72-1.16-.22-4.05,1.12-5.71.51l1.36-2.03ZM245.77,144.49c-.55-.56-4.18-1.97-4.58-1.54-.88,2.61,1.88,5.71,1.85,7.7-.02,1.23-.98,2.85-1.11,4.28-.17,1.94-.9,14.69-1.43,15.25-.19.2-2.66-.15-3.41,0,3.52,3.36,2.05,5.89,2.27,9.77.25,4.42.41,10.62,1.22,14.98.23,1.25,1.99,7.88,2.98,7.9,1.93.04.26-5.82.32-7.1.17-4.04,2.27-10.26,2.77-14.31.48-3.84-2.34-9.42,2.71-8.53.62-1.96-1.23-.98-1.37-1.7-.37-1.82,1.55-.33,1.37-1.69-9.25,1.65-3.66-2.74-2.71-8.17.39-.3,1.61,1.35,1.92,1.81,5.32,7.82,7.67,20.61,12.49,27.68.81,1.19,2.19,3.37,3.27,1.48-2.34-7.14-4.59-14.38-7.13-21.45-1.22-3.4-2.45-5.51-3.92-8.32-1.77-3.38-3.29-10.04-4.77-13.62-.14-.34-2.55-4.23-2.73-4.42ZM271.98,145.53c-.4-.23-.38-1.64-1.8-2.29-1.33-.6-3.93-.16-4.38,1.5-.66,2.44,1.75,1.74,2.68,2.75,2.28,2.48-.5,8.43-1.23,11.62-1.3,5.69-1.18,8.22-1.82,13.77-.4,3.45-3.5,7.89-2.44,12.26,3.4-1,3.81-13.79,5.53-14.89.7-.45,2.55.29,3.24-.17.56-.37,1.31-5.45,2.8-6.04-.67,1.99,1.86,5.98,1.78,7.13-.09,1.42-2.06,2.47-.77,5.81.87,2.27.96-.63,1.04-.68,1.23-.77,1.61,1.29,2.28,1.83.53.44,2.48.06,2.46,2.63,0,.46-1.54.04-1.33.63,2.14,2.26,2.89,10.27,7.13,9.18,2.04-.52-.27-3.1-.31-3.76-.02-.29,1.36-.27,1.39-.69.16-1.93-2.13-7.31-2.13-10.17,0-4.05,2.66-9.53,2.1-13.95,1.57-.4,1.12.31,1.56.86,1.77,2.23,2.41,5.18,2.53,7.98l1.35-2.71c2.39,3.79,2.28,7.88,2.74,12.25,6.58-1.47,1.65-5.34.83-9.35-1.28-6.3-1.04-10.41-2.83-16.91-1.13-4.11,1.56-12.95-6.6-9.89-.41,1.5-8.44,18.83-9.8,17.76-2.1-2.87.18-4.9.06-6.46s-1.65-1.28-2.09-2.24c-.98-2.14.53-5.71-.63-7.24-.72-.94-2.39.02-3.35-.53ZM211.21,146.34c-.9-5.77-4.03-1.71-6.22.29-1.17,1.07-2.73-.58-1.99,4.17.37,2.35,2.25,3.25,2.7,6.15.56,3.56.12,7.98.43,11.28.17,1.83,1.39,2.98,1.61,4.38.56,3.55.88,17.44,2.27,19.19,1.88,2.38,8.8-2.64,10.88-3.46,4.57-1.8,9.54-2.28,14.16-3.89-.11-1.45-2.67-.04-3.4-1.7-1.36-3.08,4.52-.21,2.37-3.75-6.87,1.06-13.77,1.74-20.09,4.77.29-1.34-.43-5.35,0-6.13.07-.13,2.37.89,2.76-.43.35-1.46-.88-4.8-.72-5,.26-.35,7.7-2.09,8.57-2.11,1.23-.03,1.14,2.72,2.34,1.41.23-.26-.58-1.51-.68-2.03.8-.56,4.55-.09,4.1-1.7-.23-.81-2.65-.08-3.62-.33-.76-.2-.72-1.77-1.53-1.97-.39-.1-7.28.48-8.11.62-2.39.41-5.04,3.4-5.21-3.08-.11-4.19,2-2.22,2.11-2.4.19-.32-1.16-6.79-.58-7.4.73-.78,16.62-2.33,18.98-2.14-.31-.91-3.15-1.52-4.05-1.73-2.03-.46-4.17-.23-6.16-1l8.17-2.03h-19.08ZM152.77,163.59c2.44-1.22,8.25-.32,10.29-1.02,2.75-.94,2.56-6.5,1.19-8.45-3-4.3-12.47-2.06-16.2.27-2.99,1.86-3.25,4.01-5.67,5.97,1.41,4.5-1.72,9.35-1.38,14.23.28,3.98,3.62,13.49,7.87,14.65.28-3.17,4.34,1.15,4.87,1.3,2.15.59,6.17-.03,8.02.04.42.01.35,1.36.78,1.43,1.89.31,10.65-4.78,10.51-7.86-2.13-1.62-1.19,2.38-2.73,2.37v-5.44c-.65.53-3.21.67-3.31.81-.44.64.22,1.65-1.24,2.47-4.32,2.42-12.65-1.85-15.51-5.37-6.36-7.83-5.58-26.93,8.46-20.72-2.67,3.3-14.95,2.87-9.18,8.5.8-.3,3.01-3.05,3.22-3.16Z"/>
      <path d="M186.56,143.07c.14.08,2.17,2.23,2.21,2.39.34,1.56-1.6,6.29-.69,8.6-.16.67-5.25,2.4-5.49-1.25-.13-2.06-.6-3.05-.68-4.12-.16-2.05,2.05-7.11,4.65-5.62Z"/>
    </g>
  </g>
</svg>