<?xml version="1.0" encoding="UTF-8"?>
<svg id="Layer_2" data-name="Layer 2" xmlns="http://www.w3.org/2000/svg" viewBox="0 0 366.25 204.11">
  <g id="Layer_1-2" data-name="Layer 1-2">
    <g>
      <path fill="#c1272d" d="M100.34.72c.18.17.14,4.55,1.1,4.81,2.46.67,10.24-.21,13.58-.07,5.74.25,11.91,1.14,17.66,1.42,42.66,2.08,84.77,3.17,127.43.65,1.76-.1,6.11-.36,7.47-.62.78-.15-.1-1.71.81-2.12,3.16-1.42,8.9.12,11.45-.61.85-.24.13-1.83.37-2.09.42-.45,10.09,2.38,12,2.64,11.2,1.51,26.13-3.44,34.42,4.41,1.55,1.47,2.84,2.68,4.4,4.08,6.45,5.78,5.99,2.9,13.5,3.91,4.58.62,5.84,5.4,8.81,7.92.44.37,1.66-.13,1.86.57.44,1.6-.3,5.33-.05,7.44.21,1.8,1,7.34,1.35,8.71.19.77,1.75.71,1.87,1.43.09.48-.72,4.2-1.01,4.99-.23.62-3.38,5.39-3.65,5.58-.52.36-1.74-.86-2.52-.53-.12.05-.15,1-.6,1.25-1.9,1.04-8.39,3.46-8.2,5.81.06.72,2.83,2.53,3.4,3.9.61,1.47.33,4.14.63,4.49.7.83,4.35.97,5.13,1.32,2.79,1.27,14.03,10.96,14.5,13.43.38,2,.17,16.37-.8,17.21-.53.46-6.01.78-8.09,1.79-1.33.65-6.57,4.17-7.77,5.17-6.01,5,1.03,4.75,2.22,6.95.4.74-.13,2.07.25,2.49.28.31,1.47-.28,1.96.53,3.3,5.44.96,11.35.75,16.95-.01.31,1.03.14,1.27.8s-.19,1.98.03,2.2c.12.13,2.28-.13,3.38.37.56.25,6.52,6.37,6.68,6.94.39,1.31.42,9.92.13,11.42-.41,2.13-3.46,3.08-3.42,6.83.04,3.4,4.59,6.71,2.41,11.22-.69,1.43-7.24,3.77-9.22,5.76-2.58,2.57-2.99,6.73-5.76,9.9-7.27,8.32-12.94,5.86-22.3,7.67-14.14,2.73-28.6,4.43-43.12,5.25-12.97.73-36.99,2.36-48.99-.05-4.88-.98-8.27-4.22-12.85-5.41-.63-.16-.24-1.28-1.48-1.41-4.25-.43-9.56,2.33-13.77,2.54s-10.89-2.61-12.79-2.48c-1.43.1-6.34,2.94-8.18,3.45-6.67,1.86-17.37-1.61-24.58-2.08-28.95-1.89-55.04,3.54-83.08,4.11-9.54.19-19.92-4.48-29.41-5.39-2.47-.24-11.81.5-12.56.23-1.54-.58-5.98-6.61-7.43-8.19-.58-.64-1.94-.9-2.03-1.03-.56-.79,1.55-2.77,1.32-3.67s-2.1-.78-2.55-1.21c-2.3-2.24-.95-9.03-1.56-11.61-.13-.55-1.24-.18-1.4-1.44-.29-2.19.57-5.36-.07-7.41-.43-1.4-2.98-1.64-3.63-5.56-1.21-7.27-.76-11.34-.98-18.37-.07-2.37-2.64-7.17-2.49-8.87.18-2.09,7.08-7.09,6.48-9.4-.64-2.47-6.88-3.41-8.35-4.5-.54-.4-.78-2.08-1.76-3.16-2.7-2.98-5.65-2.73-7.68-7.31C-1.38,90.68-.22,82.91.87,67.76c.53-7.33,2.22-7,3.25-12.42.2-1.05-.72-2.78.09-3.85.81-1.07,2.8.03,3.41-.47.15-.13.51-2.37,1.42-3.68,4.15-5.95,8.97-4.93,14.51-6.6,1.22-.37,1.74-1.92,2.49-2.21.95-.37,7.38-.16,9.17-.44,1.31-.21,5.98-1.32,6.79-1.93.14-.11,1.8-2.91,1.85-3.08,1.53-5.48-.73-8.31,3.37-13.62,3.24-4.2,6.17-4.52,11.23-5.11,1.62-.19,4.08.38,5.37-.09s.8-1.99,1.26-2.47c.42-.43,2.14-.37,3.21-1.22,1.15-.9,2.13-3.43,3.76-4.41,2.93-1.77,7.31-.79,9.46-2.13,1.31-.82.81-2.21,1.59-2.64C83.78,1.01,90.03.01,91.14,0c2.56-.02,3.9,1.12,5.61,1.28,1.01.09,3.31-.82,3.59-.55h0ZM66.2,42.33c-5.04-3.13-2.65,8.9-2.61,11.17.1,4.91-2.56,6.55,4.04,9.16.57-2.4,2.32-5.23,2.05-7.77-.19-1.73-1.7-2.6-1.91-3.61-.29-1.41.97-2.96.41-5.12-.05-.21-1.8-3.71-1.98-3.82h0ZM84.68,83.08c5.12-1.84,3.97-8.7,4.93-13.1.41-1.9,2.24-4.51,2.44-6.47.16-1.59-.65-2.72-.56-3.88.19-2.41,3.95-4.53,2.41-9.24-2.08-6.38-5.1,2.09-5.7,4.64-.65,2.72-1.36,5.3-2.01,8.14-.36,1.6.01,3.35-.45,5.01-.6,2.18-7.86,6.49-4.44,11.12,1.54,2.09,4.26-.48,3.36,3.78h.02ZM54.3,78.64c5.58-4.96-2.68-7.42-2.82-9.51-.06-.86,1.68-3.51,1.14-6.78-.38-2.29-2.34-3.24-2.52-4.2-.21-1.09,2.27-9.04-1.86-7.74-.91.28-.96,1.55-1.06,2.34-.59,4.88.81,12.72,1.39,17.74.24,2.06-.81,7.96,1.54,8.72.17.06,3.41.35,3.59.32.44-.08.33-.64.62-.9h-.02ZM29.6,78.19c-.53-.91,1.8-8.1-2.65-9.31-7.93-2.15.21,11.15,1.87,13.16l5.43,2.39c1.12-3.24-4.2-5.46-4.65-6.25h0ZM76.5,84.45c-2.68-.94-4.67.98-6.53,1.3-2.56.44-10.11.31-11.18,2.45-.69,1.38,1.37.73,2.09,1.45,2.62,2.61,2.81,4.67,7.47,6.68,1.42.61,3.33.04,4.48.97,1.93,1.57-.92,3.73,4.35,2.12,0,.95.18,2-.14,2.92-1.18,3.45-3.24,5.26-5.2,7.74-2.35,2.98-3.98,9.69-7.43,10.95-.49.18-4.21.81-4.65.78-1.02-.07-2.3-1.73-3-1.29-.26.16-.25,2.6-2.06,2.03-.18-2.48.45-5.37,1.4-7.66.22-.53,1.15-.53,1.19-.62.56-1.25-2.48-3.72-3.09-5.18-.77-1.85-.55-5.33-1.02-6.14-.24-.41-1.85-.64-1.88-1.16-.02-.41,5.34-3.99,5.27-6.15,0-.32-1.44-1.42-1.89-2.7-.65-1.84,2.45.47,1.37-1.36-1.32-2.23-10.93,1.99-12.53,3.12-1.49,1.05-1.55,3.48-.06,4.02.23.08,2.33-4.46,3.74-1.01.67,1.65-2.64.69-3.13,3.02-.38,1.8.26,7.64.76,9.56,1,3.82,1.11,3.64,1,7.82-.2,8.2,3.31,10.99,4.05,17.76.36,3.25-1.82,12.38-.3,14.59,1.09,1.59,2.82.79,2.87-1.15.04-1.44-.95-2.63-1.1-4.03-.2-1.92-1.27-12.1-.09-12.92.89-.62,4.51-.59,5.21.36.35.48-1.39,7.5.64,8.19,2.2.75.8-5.89,1.03-7.13.77-4.13,6.47-1.93,9.18-1.85,1.67.05,5.59-1.8,6.38.57.75,2.24.27,18.76.12,22.39-.07,1.6-1.21,2.68-1.21,3.93.02,2.2,1.82,6.34,1.88,9.02.07,3.18-3.09,13.6,2.03,12.21l-1.04-48.03c.17-.54.13-1.16.83-1.33,2.09-.5,7.85-.26,9.31-1.29.42-1.66,6.5-8.75,5.89-9.57-.14-.19-2.55-1.05-3.72-2.77-2.03-3.02-1.69-6.32-2.77-8.8-.84-1.92-5.36-4.31-6.5-7.11-2.05-5.04,2.02-3.6,1.98-6.83-.01-.98-1.82-8.29-3.3-6.49.97,7.57-6.63,2.7-3.37-1.66,1.03-1.38,2.59-.46,2.68-1.74v.02ZM120.1,103.51c-3.38-.37-4.74-2.23-8.12-.28-2.47,1.42-2.66,3.85-4.13,5.4-1.86,1.97-5.43,1.82-6.15,5.08,6.53-2.07,16.31-2.44,18.4-10.2Z"/>
      <path fill="#c1272d" d="M186.07,123.62c.14.08,2.17,2.23,2.21,2.39.34,1.56-1.6,6.29-.69,8.6-.16.67-5.25,2.4-5.49-1.25-.13-2.06-.6-3.05-.68-4.12-.16-2.05,2.05-7.11,4.65-5.62h0Z"/>
    </g>
  </g>
</svg>